# xmcd CD database file
#
# Track frame offsets:
#	150
#	16638
#	28854
#	46462
#	63014
#	78286
#	97110
#	116734
#	130934
#	143934
#	159094
#	175118
#	187846
#	206990
#	219142
#	239390
#	251094
#	271150
#	286902
#	302430
#	322630
#
# Disc length: 4456 seconds
#
# Revision: 4
# Processed by: cddbd v1.5.2PL0 Copyright (c) Steve Scherf et al.
# Submitted via: CDex 1.51
#
DISCID=14116615
DTITLE=EXTENDED MIXES - EXTENDED MIXES
DYEAR=2010
DGENRE=Country
TTITLE0=Carlene Carter - I Love you 'Cause I Want To
TTITLE1=Alan Jackson - Lettle Bitty
TTITLE2=Garth Brooks - Friends In Love Places
TTITLE3=Tracy Lawrence - I See It Now
TTITLE4=Waylon Jennings - Luckenbach, texas (Back To The Basics Of Love)
TTITLE5=Shania Twain - Any Man Of Mine
TTITLE6=Restless Heart - I'll Still Be Loving you
TTITLE7=Perfect Stranger - Fire When Ready
TTITLE8=Clint Black - Killin' Time
TTITLE9=Reba McEntire - Take It Back
TTITLE10=John Berry - Your Love Amazes Me (Edit)
TTITLE11=Patsy Cline - Crazy
TTITLE12=Lonestar - No News (Dance Mix)
TTITLE13=Marty Stuart - Hillbilly Rock
TTITLE14=Gibson Miller Band - Texas Tattoo (Extended Version)
TTITLE15=Mel McDeaniel - Stand Up
TTITLE16=Pam Tillis - Cleopatra, Queen Of Denial (Club Mix)
TTITLE17=Billy Ray Cyrus - Achy Breaky Heart
TTITLE18=Sammy Kershaw - Third Rate Tomance
TTITLE19=Mary-Chapin Carpenter - Down At The Twist And Shout (Dance Mix)
TTITLE20=George Strait - The Fireman
EXTD=YEAR: 2010
EXTT0=
EXTT1=
EXTT2=
EXTT3=
EXTT4=
EXTT5=
EXTT6=
EXTT7=
EXTT8=
EXTT9=
EXTT10=
EXTT11=
EXTT12=
EXTT13=
EXTT14=
EXTT15=
EXTT16=
EXTT17=
EXTT18=
EXTT19=
EXTT20=
PLAYORDER=
